<svg width="24" height="24" xmlns="http://www.w3.org/2000/svg">
 <title/>
 <desc/>

 <g>
  <title>background</title>
  <rect fill="none" id="canvas_background" height="402" width="582" y="-1" x="-1"/>
 </g>
 <g>
  <title>Layer 1</title>
  <path id="food-birthday-cake-party-candle-outline-stroke" fill="#fbe086" d="m6,4.5l0,4l1,0l0,-4l-1,0m5.5,0l0,4l1,0l0,-4l-1,0m5.5,0l0,4l1,0l0,-4l-1,0m-10.50531,-0.50004c0.50847,0.00553 0.82112,-0.54862 0,-1.49996c-0.80613,0.95134 -0.49493,1.49457 0,1.49996l0,0m5.5,0c0.50847,0.00553 0.82112,-0.54862 0,-1.49996c-0.80613,0.95134 -0.49493,1.49457 0,1.49996l0,0m10.00531,9.25059l0,-2.24202c0,-0.5597 -0.44467,-1.00853 -0.99116,-1.00853l-18.01768,0c-0.54432,0 -0.99116,0.45116 -0.99116,1.00853l0,2.28076c0.12155,0.10999 0.2472,0.21799 0.37574,0.32195c0.43324,0.35041 0.8524,0.61638 1.22855,0.76358c0.21304,0.08337 0.4043,0.12518 0.56879,0.12518c0.37388,0 0.70924,-0.19355 1.30967,-0.71646c0.08979,-0.0785 0.08979,-0.0785 0.18166,-0.15926c0.92395,-0.81129 1.44896,-1.12428 2.25867,-1.12428c0.79881,0 1.32749,0.29546 2.35419,1.10791c0.06307,0.04992 0.06307,0.04992 0.12543,0.09916c0.73872,0.58249 1.12587,0.79293 1.55884,0.79293c0.46328,0 0.86036,-0.22148 1.7312,-0.89542c0.07177,-0.05555 0.07177,-0.05555 0.1443,-0.11152c0.91491,-0.70465 1.45231,-0.99306 2.16296,-0.99306c0.71947,0 1.20242,0.2885 2.21156,1.11276c0.06756,0.05519 0.06756,0.05519 0.13436,0.10958c0.69494,0.56477 1.06714,0.77766 1.42331,0.77766c0.20793,0 0.48157,-0.08235 0.80016,-0.2433c0.31047,-0.15687 0.64831,-0.37992 0.99862,-0.65173c0.1472,-0.11422 0.2918,-0.23324 0.43199,-0.35442zm0,1.28177l0,4.45915c0,0.55737 -0.44684,1.00853 -0.99116,1.00853l-18.01768,0c-0.54649,0 -0.99116,-0.44883 -0.99116,-1.00853l0,-4.40542c0.41987,0.31466 0.83477,0.56147 1.23985,0.72c0.32173,0.1259 0.63301,0.19395 0.93323,0.19395c0.69257,0 1.19308,-0.28886 1.96642,-0.96234c0.09319,-0.08148 0.09319,-0.08148 0.18473,-0.16194c0.74643,-0.65543 1.11594,-0.87572 1.59885,-0.87572c0.49057,0 0.88458,0.2202 1.73366,0.89209c0.06307,0.04993 0.06307,0.04993 0.12679,0.10024c0.91072,0.7181 1.44343,1.00767 2.17801,1.00767c0.77048,0 1.29129,-0.29049 2.34322,-1.10458c0.07165,-0.05546 0.07165,-0.05546 0.14246,-0.1101c0.74278,-0.57208 1.14012,-0.78532 1.55278,-0.78532c0.39406,0 0.76131,0.21939 1.57897,0.88724c0.06777,0.05536 0.06777,0.05536 0.13626,0.11113c0.87409,0.71038 1.3833,1.00163 2.054,1.00163c0.38856,0 0.80476,-0.12525 1.2511,-0.35075c0.31743,-0.16038 0.64533,-0.36937 0.97967,-0.61693zm-4.50531,-10.53236c0.50847,0.00553 0.82112,-0.54862 0,-1.49996c-0.80613,0.95134 -0.49493,1.49457 0,1.49996zm-16.49469,7.00857l0,7.98294c0,1.10928 0.88967,2.00853 1.99116,2.00853l18.01768,0c1.09969,0 1.99116,-0.90195 1.99116,-2.00853l0,-7.98294c0,-1.10928 -0.88967,-2.00853 -1.99116,-2.00853l-18.01768,0c-1.09969,0 -1.99116,0.90195 -1.99116,2.00853z"/>
 </g>
</svg>